<?xml version="1.0" encoding="utf-8"?>
<!DOCTYPE svg PUBLIC "-//W3C//DTD SVG 1.1//EN" "http://www.w3.org/Graphics/SVG/1.1/DTD/svg11.dtd">
<svg version="1.1" id="Layer_1" focusable="false" xmlns="http://www.w3.org/2000/svg" xmlns:xlink="http://www.w3.org/1999/xlink"
	 x="0px" y="0px" width="300.283px" height="79.246px" viewBox="0 110.377 300.283 79.246"
	 enable-background="new 0 110.377 300.283 79.246" xml:space="preserve">
<title>Gatsby</title>
<path fill="#FFFFFF" d="M178.02,144.34h7.924v28.302h-7.924v-3.679c-2.831,4.244-6.51,4.527-8.774,4.527
	c-8.773,0-14.434-6.792-14.434-15c0-8.49,5.66-15,13.868-15c2.264,0,6.509,0.283,9.057,4.528v-3.679H178.02z M163.302,158.49
	c0,4.529,3.113,7.925,7.925,7.925c4.528,0,7.924-3.396,7.924-7.925c0-4.527-3.113-7.924-7.924-7.924
	C166.698,150.566,163.302,153.963,163.302,158.49z M201.51,151.132v21.51h-7.925v-21.51h-3.113v-6.792h3.113v-9.623h7.925v9.623
	h5.377v6.792H201.51z M225.566,151.132c-1.981-1.698-3.68-1.981-4.529-1.981c-1.98,0-3.113,0.849-3.113,2.264
	c0,0.849,0.283,1.698,2.548,2.548l1.981,0.565c2.264,0.849,5.66,1.698,7.075,3.962c0.849,1.133,1.415,2.83,1.415,4.812
	c0,2.548-0.85,5.095-3.113,7.075c-2.264,1.981-5.094,3.113-8.49,3.113c-5.943,0-9.057-2.83-11.038-4.811l4.245-4.812
	c1.698,1.698,3.963,3.396,6.227,3.396s3.963-1.132,3.963-3.113c0-1.697-1.416-2.547-2.548-2.83l-1.698-0.565
	c-1.98-0.849-4.245-1.698-5.943-3.396c-1.415-1.415-2.264-3.113-2.264-5.378c0-2.83,1.415-5.094,2.83-6.509
	c2.264-1.698,5.094-1.981,7.358-1.981c1.981,0,5.378,0.283,9.057,3.113L225.566,151.132L225.566,151.132z M242.83,148.019
	c2.83-3.962,6.793-4.528,9.057-4.528c8.207,0,13.868,6.509,13.868,15s-5.661,15-14.151,15c-1.697,0-5.943-0.283-9.057-4.527v3.679
	h-7.641v-47.547h7.924V148.019L242.83,148.019z M241.98,158.49c0,4.529,3.113,7.925,7.926,7.925c4.527,0,7.924-3.396,7.924-7.925
	c0-4.527-3.113-7.924-7.924-7.924C245.094,150.566,241.98,153.963,241.98,158.49z M278.773,168.396l-13.585-24.057h9.34
	l8.773,16.132l7.925-16.132h9.057l-22.642,43.302h-9.057L278.773,168.396L278.773,168.396z M152.83,149.151h-19.811v7.925h10.472
	c-1.698,5.377-5.661,9.056-13.019,9.056c-8.208,0-14.151-6.792-14.151-15c0-8.208,5.66-15.283,13.868-15.283
	c4.528,0,9.057,2.264,11.887,5.943l6.509-4.245c-4.245-5.944-11.038-9.34-18.396-9.34c-12.453,0-22.641,10.188-22.641,22.924
	c0,12.736,9.623,22.925,22.641,22.925c13.019,0,22.642-10.188,22.642-22.925C153.113,150.283,152.83,149.717,152.83,149.151z"/>
<path fill="#FFFFFF" d="M70.755,150H50.943v5.66h13.585c-1.981,8.49-8.208,15.566-16.415,18.396l-32.547-32.547
	c3.396-9.906,13.019-16.981,24.057-16.981c8.491,0,16.132,4.245,20.943,10.755l4.246-3.68c-5.661-7.641-14.717-12.735-25.189-12.735
	c-14.717,0-27.17,10.472-30.283,24.339l37.358,37.359C60.283,177.17,70.755,164.717,70.755,150z M8.491,150.283
	c0,7.924,3.113,15.566,9.057,21.51s13.868,9.057,21.509,9.057L8.491,150.283z"/>
<path fill="#FFFFFF" d="M39.623,110.377C17.83,110.377,0,128.208,0,150c0,21.793,17.83,39.623,39.623,39.623
	S79.245,171.793,79.245,150C79.245,128.208,61.415,110.377,39.623,110.377z M17.547,172.076c-5.943-5.944-9.057-13.869-9.057-21.51
	l30.849,30.565C31.415,180.85,23.491,178.02,17.547,172.076z M46.415,180.283L9.34,143.208
	c3.113-13.868,15.566-24.339,30.283-24.339c10.472,0,19.528,5.094,25.189,12.735l-4.246,3.68
	c-4.811-6.51-12.453-10.755-20.943-10.755c-11.038,0-20.377,7.075-24.057,16.981l32.547,32.547
	c8.208-2.83,14.434-9.906,16.415-18.396H50.943V150h19.812C70.755,164.717,60.283,177.17,46.415,180.283z"/>
</svg>
