<?xml version="1.0" encoding="utf-8"?>
<!-- Generator: Adobe Illustrator 16.0.0, SVG Export Plug-In . SVG Version: 6.00 Build 0)  -->
<!DOCTYPE svg PUBLIC "-//W3C//DTD SVG 1.1//EN" "http://www.w3.org/Graphics/SVG/1.1/DTD/svg11.dtd">
<svg version="1.1" id="Layer_1" xmlns="http://www.w3.org/2000/svg" xmlns:xlink="http://www.w3.org/1999/xlink" x="0px" y="0px"
	 width="360.229px" height="119.162px" viewBox="0 0 360.229 119.162" enable-background="new 0 0 360.229 119.162"
	 xml:space="preserve">
<g>
	<g>
		<path fill="#FFFFFF" d="M45.205,45.029h-9.229V34.014l0.908-20.391L25.693,45.029h-6.24L8.291,13.623l0.908,20.391v11.016H0V2.373
			h7.793h4.248l10.547,30.439L33.135,2.373h12.07V45.029z"/>
		<path fill="#FFFFFF" d="M51.044,20.566c1.182-2.441,2.905-4.355,5.171-5.742c2.266-1.387,4.97-2.08,8.115-2.08
			c3.164,0,5.884,0.693,8.159,2.08c2.275,1.387,4.003,3.301,5.186,5.742c1.182,2.442,1.772,5.215,1.772,8.32v0.615
			c0,3.105-0.591,5.874-1.772,8.306c-1.182,2.432-2.905,4.341-5.171,5.728c-2.266,1.387-4.971,2.08-8.115,2.08
			c-3.164,0-5.884-0.693-8.159-2.08c-2.275-1.387-4.004-3.296-5.186-5.728c-1.182-2.432-1.772-5.2-1.772-8.306v-0.615
			C49.271,25.781,49.862,23.008,51.044,20.566z M59.613,36.05c0.996,1.631,2.588,2.446,4.775,2.446c2.148,0,3.721-0.82,4.717-2.461
			s1.494-3.818,1.494-6.533v-0.615c0-2.695-0.498-4.873-1.494-6.533c-0.996-1.66-2.588-2.49-4.775-2.49
			c-2.149,0-3.721,0.835-4.717,2.505s-1.494,3.843-1.494,6.519v0.615C58.119,32.237,58.617,34.419,59.613,36.05z"/>
		<path fill="#FFFFFF" d="M100.008,12.847c0.508,0.069,0.918,0.151,1.23,0.249l-0.117,8.555c-1.133-0.156-2.178-0.234-3.135-0.234
			c-3.164,0-5.225,1.045-6.182,3.135v20.479h-8.848V13.33h8.32l0.264,3.838c0.781-1.425,1.772-2.52,2.974-3.281
			s2.553-1.143,4.058-1.143C99.021,12.744,99.5,12.778,100.008,12.847z"/>
		<path fill="#FFFFFF" d="M131.613,13.33v30.557c0,2.852-0.645,5.303-1.934,7.354s-3.101,3.608-5.435,4.673
			c-2.334,1.064-5.044,1.597-8.13,1.597c-2.149,0-4.336-0.425-6.563-1.274s-3.965-2.046-5.215-3.589l3.838-5.42
			c0.977,1.074,2.109,1.914,3.398,2.52c1.289,0.605,2.685,0.908,4.189,0.908c2.207,0,3.921-0.591,5.142-1.772
			c1.22-1.182,1.831-2.847,1.831-4.995v-1.582c-1.953,2.208-4.473,3.311-7.559,3.311c-2.578,0-4.839-0.688-6.782-2.065
			c-1.944-1.377-3.438-3.286-4.482-5.728c-1.045-2.441-1.567-5.195-1.567-8.262v-0.615c0-3.203,0.522-6.025,1.567-8.467
			c1.044-2.441,2.539-4.34,4.482-5.698c1.943-1.357,4.223-2.036,6.841-2.036c3.438,0,6.113,1.172,8.027,3.516l0.322-2.93H131.613z
			 M122.736,35.742V22.588c-1.074-1.797-2.832-2.695-5.273-2.695c-2.032,0-3.589,0.84-4.673,2.52
			c-1.084,1.68-1.626,3.857-1.626,6.533v0.615c0,2.637,0.527,4.78,1.582,6.431c1.055,1.651,2.607,2.476,4.658,2.476
			C119.865,38.467,121.642,37.559,122.736,35.742z"/>
		<path fill="#FFFFFF" d="M162.545,41.572c0.215,1.113,0.537,2.1,0.967,2.959v0.498h-8.877c-0.391-0.762-0.674-1.709-0.85-2.842
			c-2.012,2.285-4.658,3.428-7.939,3.428c-1.992,0-3.809-0.41-5.449-1.23s-2.935-1.953-3.882-3.398
			c-0.948-1.445-1.421-3.076-1.421-4.893c0-3.34,1.24-5.913,3.721-7.72c2.48-1.806,6.133-2.71,10.957-2.71h3.604v-1.787
			c0-1.465-0.371-2.603-1.113-3.413c-0.743-0.81-1.856-1.216-3.34-1.216c-1.348,0-2.398,0.318-3.149,0.952
			c-0.752,0.635-1.128,1.538-1.128,2.71h-8.848c0-1.894,0.561-3.613,1.685-5.156c1.123-1.542,2.714-2.764,4.775-3.662
			c2.061-0.898,4.438-1.348,7.134-1.348c2.5,0,4.717,0.42,6.65,1.26c1.934,0.84,3.447,2.1,4.541,3.779
			c1.094,1.68,1.641,3.731,1.641,6.152v13.271C162.223,39.004,162.33,40.459,162.545,41.572z M151.236,38.071
			c0.977-0.557,1.689-1.235,2.139-2.036v-5.303h-3.369c-2.051,0-3.579,0.444-4.585,1.333c-1.006,0.889-1.509,2.046-1.509,3.472
			c0,0.996,0.356,1.807,1.069,2.432c0.713,0.625,1.665,0.938,2.856,0.938C149.127,38.906,150.259,38.628,151.236,38.071z"/>
		<path fill="#FFFFFF" d="M191.895,15.601c1.738,1.904,2.607,5.015,2.607,9.331v20.098h-8.848V24.902c0-1.875-0.4-3.179-1.201-3.911
			s-2.041-1.099-3.721-1.099c-1.153,0-2.153,0.245-3.003,0.732c-0.85,0.488-1.538,1.182-2.065,2.08v22.324h-8.848V13.33h8.291
			l0.293,3.662c1.113-1.387,2.441-2.441,3.984-3.164c1.543-0.722,3.252-1.084,5.127-1.084
			C187.695,12.744,190.156,13.696,191.895,15.601z"/>
		<path fill="#FFFFFF" d="M243.475,26.587c1.152,1.709,1.729,3.658,1.729,5.845c0,4.141-1.328,7.276-3.984,9.404
			c-2.656,2.129-6.514,3.193-11.572,3.193h-12.979h-3.516V2.373h15.059c5.137,0,9.097,0.977,11.88,2.93
			c2.783,1.953,4.175,4.883,4.175,8.789c0,2.032-0.503,3.843-1.509,5.435c-1.007,1.592-2.524,2.788-4.556,3.589
			C240.564,23.721,242.322,24.878,243.475,26.587z M222.352,9.814v10.371h5.859c2.324,0,4.047-0.425,5.171-1.274
			c1.123-0.85,1.685-2.114,1.685-3.794c0-1.875-0.542-3.227-1.626-4.058c-1.084-0.83-2.827-1.245-5.229-1.245H222.352z
			 M234.422,36.167c1.074-0.967,1.611-2.241,1.611-3.823c0-3.828-2.002-5.742-6.006-5.742h-7.676v11.016h7.295
			C231.756,37.617,233.348,37.134,234.422,36.167z"/>
		<path fill="#FFFFFF" d="M275.695,41.572c0.215,1.113,0.537,2.1,0.967,2.959v0.498h-8.877c-0.391-0.762-0.674-1.709-0.85-2.842
			c-2.012,2.285-4.658,3.428-7.939,3.428c-1.992,0-3.809-0.41-5.449-1.23s-2.935-1.953-3.882-3.398
			c-0.948-1.445-1.421-3.076-1.421-4.893c0-3.34,1.24-5.913,3.721-7.72c2.48-1.806,6.133-2.71,10.957-2.71h3.604v-1.787
			c0-1.465-0.371-2.603-1.113-3.413c-0.742-0.81-1.855-1.216-3.34-1.216c-1.348,0-2.398,0.318-3.149,0.952
			c-0.752,0.635-1.128,1.538-1.128,2.71h-8.848c0-1.894,0.561-3.613,1.685-5.156c1.123-1.542,2.714-2.764,4.775-3.662
			c2.061-0.898,4.438-1.348,7.134-1.348c2.5,0,4.717,0.42,6.65,1.26c1.934,0.84,3.447,2.1,4.541,3.779
			c1.094,1.68,1.641,3.731,1.641,6.152v13.271C275.373,39.004,275.48,40.459,275.695,41.572z M264.387,38.071
			c0.977-0.557,1.689-1.235,2.139-2.036v-5.303h-3.369c-2.051,0-3.579,0.444-4.585,1.333c-1.007,0.889-1.509,2.046-1.509,3.472
			c0,0.996,0.355,1.807,1.069,2.432c0.713,0.625,1.665,0.938,2.856,0.938C262.277,38.906,263.41,38.628,264.387,38.071z"/>
		<path fill="#FFFFFF" d="M291.979,32.549l-2.959,2.959v9.521h-8.848V0h8.848v24.639l1.465-1.904l7.939-9.404h10.605l-11.367,13.154
			l12.275,18.545h-10.137L291.979,32.549z"/>
		<path fill="#FFFFFF" d="M338.818,32.051h-20.039c0.332,1.973,1.152,3.541,2.461,4.702c1.309,1.162,2.988,1.743,5.039,1.743
			c1.523,0,2.934-0.288,4.233-0.864c1.299-0.576,2.407-1.44,3.325-2.593l4.248,4.893c-1.113,1.602-2.739,2.949-4.878,4.043
			s-4.644,1.641-7.515,1.641c-3.242,0-6.061-0.684-8.452-2.051c-2.393-1.367-4.229-3.223-5.508-5.566
			c-1.279-2.344-1.919-4.932-1.919-7.764v-1.113c0-3.164,0.596-5.986,1.787-8.467c1.191-2.48,2.91-4.419,5.156-5.815
			c2.246-1.396,4.902-2.095,7.969-2.095c2.988,0,5.537,0.635,7.646,1.904c2.109,1.27,3.711,3.072,4.805,5.405
			c1.094,2.334,1.641,5.083,1.641,8.247V32.051z M330.146,25.43c-0.039-1.718-0.513-3.076-1.421-4.072s-2.261-1.494-4.058-1.494
			c-1.68,0-2.993,0.557-3.94,1.67c-0.948,1.113-1.567,2.647-1.86,4.6h11.279V25.43z"/>
		<path fill="#FFFFFF" d="M358.998,12.847c0.508,0.069,0.918,0.151,1.23,0.249l-0.117,8.555c-1.133-0.156-2.178-0.234-3.135-0.234
			c-3.164,0-5.225,1.045-6.182,3.135v20.479h-8.848V13.33h8.32l0.264,3.838c0.781-1.425,1.772-2.52,2.974-3.281
			s2.554-1.143,4.058-1.143C358.012,12.744,358.49,12.778,358.998,12.847z"/>
	</g>
	<g>
		<path fill="#FFFFFF" d="M23.452,66.882c2.959,1.71,5.269,4.112,6.929,7.207c1.66,3.096,2.49,6.636,2.49,10.62v1.875
			c0,4.004-0.831,7.549-2.49,10.635c-1.66,3.086-3.975,5.483-6.943,7.192c-2.969,1.71-6.368,2.563-10.195,2.563H3.984H0V64.318
			h9.199h4.102C17.109,64.318,20.493,65.173,23.452,66.882z M23.525,84.65c0-4.219-0.869-7.422-2.607-9.609
			c-1.739-2.188-4.277-3.281-7.617-3.281H9.199v27.803h4.043c3.34,0,5.889-1.108,7.646-3.325c1.758-2.216,2.637-5.435,2.637-9.653
			V84.65z"/>
		<path fill="#FFFFFF" d="M64.857,93.996H44.818c0.332,1.973,1.152,3.541,2.461,4.702c1.308,1.162,2.988,1.743,5.039,1.743
			c1.523,0,2.934-0.288,4.233-0.864c1.299-0.575,2.407-1.44,3.325-2.593l4.248,4.893c-1.113,1.602-2.739,2.949-4.878,4.043
			s-4.644,1.641-7.515,1.641c-3.242,0-6.06-0.684-8.452-2.051c-2.393-1.367-4.229-3.223-5.508-5.566
			c-1.279-2.344-1.919-4.932-1.919-7.764v-1.113c0-3.164,0.596-5.986,1.787-8.467c1.191-2.48,2.91-4.419,5.156-5.815
			c2.246-1.396,4.902-2.095,7.969-2.095c2.988,0,5.537,0.635,7.646,1.904s3.71,3.072,4.805,5.405
			c1.094,2.334,1.641,5.083,1.641,8.247V93.996z M56.186,87.375c-0.04-1.719-0.513-3.076-1.421-4.072s-2.261-1.494-4.058-1.494
			c-1.68,0-2.993,0.557-3.94,1.67c-0.948,1.113-1.567,2.646-1.86,4.6h11.279V87.375z"/>
		<path fill="#FFFFFF" d="M94.471,75.275l-10.605,31.699h-5.566h-3.018L64.646,75.275h9.287l5.654,20.947l5.625-20.947H94.471z"/>
		<path fill="#FFFFFF" d="M124.436,93.996h-20.039c0.332,1.973,1.152,3.541,2.461,4.702c1.308,1.162,2.988,1.743,5.039,1.743
			c1.523,0,2.934-0.288,4.233-0.864c1.299-0.575,2.407-1.44,3.325-2.593l4.248,4.893c-1.113,1.602-2.739,2.949-4.878,4.043
			s-4.644,1.641-7.515,1.641c-3.242,0-6.06-0.684-8.452-2.051c-2.393-1.367-4.229-3.223-5.508-5.566
			c-1.279-2.344-1.919-4.932-1.919-7.764v-1.113c0-3.164,0.596-5.986,1.787-8.467c1.191-2.48,2.91-4.419,5.156-5.815
			c2.246-1.396,4.902-2.095,7.969-2.095c2.988,0,5.537,0.635,7.646,1.904s3.71,3.072,4.805,5.405
			c1.094,2.334,1.641,5.083,1.641,8.247V93.996z M115.764,87.375c-0.04-1.719-0.513-3.076-1.421-4.072s-2.261-1.494-4.058-1.494
			c-1.68,0-2.993,0.557-3.94,1.67c-0.948,1.113-1.567,2.646-1.86,4.6h11.279V87.375z"/>
		<path fill="#FFFFFF" d="M128.004,106.975v-45h8.877v45H128.004z"/>
		<path fill="#FFFFFF" d="M142.603,82.512c1.182-2.441,2.905-4.355,5.171-5.742c2.266-1.387,4.97-2.08,8.115-2.08
			c3.164,0,5.884,0.693,8.159,2.08c2.275,1.387,4.003,3.301,5.186,5.742c1.182,2.441,1.772,5.215,1.772,8.32v0.615
			c0,3.105-0.591,5.874-1.772,8.306c-1.182,2.432-2.905,4.341-5.171,5.728c-2.266,1.387-4.971,2.08-8.115,2.08
			c-3.164,0-5.884-0.693-8.159-2.08c-2.275-1.387-4.004-3.296-5.186-5.728c-1.182-2.432-1.772-5.2-1.772-8.306v-0.615
			C140.83,87.727,141.42,84.953,142.603,82.512z M151.172,97.995c0.996,1.631,2.588,2.446,4.775,2.446
			c2.148,0,3.721-0.82,4.717-2.461s1.494-3.818,1.494-6.533v-0.615c0-2.695-0.498-4.873-1.494-6.533s-2.588-2.49-4.775-2.49
			c-2.149,0-3.721,0.835-4.717,2.505s-1.494,3.843-1.494,6.519v0.615C149.678,94.182,150.176,96.365,151.172,97.995z"/>
		<path fill="#FFFFFF" d="M197.631,76.682c1.855,1.328,3.256,3.198,4.204,5.61c0.947,2.413,1.421,5.239,1.421,8.481v0.615
			c0,3.105-0.479,5.885-1.436,8.335c-0.957,2.451-2.358,4.37-4.204,5.757s-4.067,2.08-6.665,2.08c-3.086,0-5.615-1.113-7.588-3.34
			v14.941h-8.848V75.275h8.203l0.322,3.047c1.992-2.422,4.609-3.633,7.852-3.633C193.529,74.689,195.775,75.354,197.631,76.682z
			 M194.438,90.773c0-2.734-0.469-4.907-1.406-6.519s-2.412-2.417-4.424-2.417c-2.559,0-4.307,0.977-5.244,2.93v12.627
			c0.977,2.031,2.744,3.047,5.303,3.047c2.012,0,3.477-0.83,4.395-2.49s1.377-3.848,1.377-6.563V90.773z"/>
		<path fill="#FFFFFF" d="M249.715,77.561c1.758,1.914,2.637,5.02,2.637,9.316v20.098h-8.848V86.848
			c0-1.328-0.176-2.358-0.527-3.091s-0.854-1.235-1.509-1.509c-0.655-0.273-1.479-0.41-2.476-0.41c-1.191,0-2.207,0.289-3.047,0.864
			c-0.84,0.576-1.504,1.392-1.992,2.446c0.02,0.137,0.029,0.361,0.029,0.674v21.152h-8.848V86.936c0-1.328-0.176-2.363-0.527-3.105
			s-0.854-1.26-1.509-1.553c-0.655-0.293-1.489-0.439-2.505-0.439c-1.133,0-2.114,0.249-2.944,0.747
			c-0.831,0.498-1.499,1.206-2.007,2.124v22.266h-8.848V75.275h8.291l0.293,3.545c1.055-1.328,2.348-2.348,3.882-3.062
			c1.533-0.713,3.267-1.069,5.2-1.069c1.953,0,3.637,0.396,5.054,1.187c1.416,0.791,2.505,1.997,3.267,3.618
			c1.055-1.543,2.377-2.729,3.97-3.56c1.592-0.83,3.423-1.245,5.493-1.245C245.467,74.689,247.957,75.646,249.715,77.561z"/>
		<path fill="#FFFFFF" d="M285.07,93.996h-20.039c0.332,1.973,1.152,3.541,2.461,4.702c1.309,1.162,2.988,1.743,5.039,1.743
			c1.523,0,2.934-0.288,4.233-0.864c1.299-0.575,2.407-1.44,3.325-2.593l4.248,4.893c-1.113,1.602-2.739,2.949-4.878,4.043
			s-4.644,1.641-7.515,1.641c-3.242,0-6.061-0.684-8.452-2.051c-2.393-1.367-4.229-3.223-5.508-5.566
			c-1.279-2.344-1.919-4.932-1.919-7.764v-1.113c0-3.164,0.596-5.986,1.787-8.467s2.91-4.419,5.156-5.815
			c2.246-1.396,4.902-2.095,7.969-2.095c2.988,0,5.537,0.635,7.646,1.904s3.711,3.072,4.805,5.405
			c1.094,2.334,1.641,5.083,1.641,8.247V93.996z M276.398,87.375c-0.039-1.719-0.513-3.076-1.421-4.072s-2.261-1.494-4.058-1.494
			c-1.68,0-2.993,0.557-3.94,1.67c-0.948,1.113-1.567,2.646-1.86,4.6h11.279V87.375z"/>
		<path fill="#FFFFFF" d="M313.072,77.546c1.738,1.904,2.607,5.015,2.607,9.331v20.098h-8.848V86.848c0-1.875-0.4-3.179-1.201-3.911
			s-2.041-1.099-3.721-1.099c-1.152,0-2.153,0.244-3.003,0.732s-1.538,1.182-2.065,2.08v22.324h-8.848V75.275h8.291l0.293,3.662
			c1.113-1.387,2.441-2.441,3.984-3.164s3.252-1.084,5.127-1.084C308.873,74.689,311.334,75.642,313.072,77.546z"/>
		<path fill="#FFFFFF" d="M336.563,100.09v6.65c-1.523,0.547-3.262,0.82-5.215,0.82c-6.211,0-9.316-3.164-9.316-9.492V81.721h-4.482
			v-6.445h4.482v-7.852h8.848v7.852h5.332v6.445h-5.332v15.322c0,1.25,0.244,2.105,0.732,2.563c0.488,0.459,1.318,0.688,2.49,0.688
			C335.059,100.295,335.879,100.227,336.563,100.09z"/>
	</g>
</g>
</svg>
