<svg xmlns="http://www.w3.org/2000/svg" xmlns:xlink="http://www.w3.org/1999/xlink" id="Layer_1" width="32" height="32" x="0" y="0" enable-background="new 579.275 404.945 32 32" version="1.1" viewBox="579.275 404.945 32 32" xml:space="preserve"><g><g><g><g><path d="M609.166,411.772c0,0.652,0,1.308,0,1.96c0,1.559,0,3.122,0,4.681c0,1.887,0,3.774,0,5.662c0,1.615,0,3.23,0,4.845 c0,0.765,0.004,1.529,0,2.293c0,0.072-0.003,0.143-0.014,0.213c0.014-0.095,0.024-0.186,0.038-0.279 c-0.021,0.125-0.052,0.244-0.101,0.359c0.034-0.084,0.069-0.168,0.104-0.252c-0.031,0.07-0.066,0.141-0.108,0.203 c-0.066,0.101-0.122,0.087,0.056-0.066c-0.027,0.023-0.052,0.056-0.076,0.084c-0.011,0.01-0.081,0.08-0.084,0.076 c-0.007-0.004,0.251-0.168,0.084-0.066c-0.073,0.045-0.144,0.088-0.22,0.122c0.083-0.034,0.167-0.069,0.251-0.104 c-0.115,0.049-0.233,0.08-0.359,0.102c0.094-0.014,0.185-0.025,0.279-0.039c-0.286,0.035-0.59,0.014-0.876,0.014 c-0.652,0-1.301,0-1.953,0c-0.977,0-1.954,0-2.931,0c-1.192,0-2.382,0-3.575,0c-1.309,0-2.613,0-3.921,0 c-1.319,0-2.637,0-3.959,0c-1.228,0-2.459,0-3.687,0c-1.04,0-2.079,0-3.122,0c-0.74,0-1.479,0-2.219,0c-0.342,0-0.68,0-1.022,0 c-0.077,0-0.15-0.003-0.227-0.014c0.094,0.014,0.185,0.025,0.279,0.039c-0.125-0.021-0.244-0.053-0.359-0.102 c0.084,0.035,0.167,0.07,0.251,0.104c-0.07-0.031-0.14-0.065-0.203-0.108c-0.101-0.066-0.087-0.121,0.066,0.057 c-0.024-0.028-0.056-0.053-0.083-0.077c-0.011-0.011-0.081-0.08-0.077-0.083c0.003-0.008,0.167,0.25,0.066,0.083 c-0.045-0.073-0.087-0.144-0.122-0.22c0.035,0.084,0.07,0.168,0.105,0.251c-0.049-0.114-0.081-0.233-0.102-0.358 c0.014,0.094,0.024,0.184,0.039,0.278c-0.028-0.224-0.014-0.457-0.014-0.681c0-0.471,0-0.945,0-1.416c0-1.573,0-3.146,0-4.719 c0-1.895,0-3.786,0-5.68c0-1.633,0-3.262,0-4.894c0-0.75-0.003-1.503,0-2.253c0-0.122,0.011-0.244,0.024-0.366 c-0.014,0.094-0.024,0.185-0.038,0.279c0.035-0.22,0.091-0.433,0.178-0.638c-0.035,0.083-0.07,0.167-0.104,0.251 c0.059-0.136,0.125-0.269,0.206-0.391c0.024-0.039,0.049-0.073,0.073-0.112c0.077-0.119-0.077,0.108-0.083,0.105 c-0.003,0,0.15-0.171,0.164-0.185c0.052-0.052,0.108-0.104,0.164-0.153c0.063-0.056,0.171-0.098-0.087,0.066 c0.031-0.021,0.063-0.045,0.094-0.066c0.132-0.091,0.275-0.164,0.425-0.227c-0.083,0.035-0.167,0.07-0.251,0.105 c0.195-0.077,0.397-0.133,0.607-0.161c-0.094,0.014-0.185,0.024-0.279,0.039c0.314-0.039,0.642-0.024,0.959-0.024 c0.597,0,1.193,0,1.79,0c0.896,0,1.793,0,2.693,0c1.095,0,2.194,0,3.29,0c1.21,0,2.417,0,3.628,0c1.221,0,2.441,0,3.663,0 c1.137,0,2.274,0,3.407,0c0.956,0,1.912,0,2.868,0c0.677,0,1.35,0,2.026,0c0.304,0,0.61,0,0.914,0 c0.129,0,0.255,0.007,0.384,0.024c-0.095-0.014-0.185-0.024-0.279-0.039c0.21,0.031,0.412,0.083,0.607,0.161 c-0.084-0.035-0.168-0.07-0.251-0.105c0.143,0.06,0.278,0.129,0.407,0.216c0.008,0.003,0.112,0.073,0.112,0.077 c0,0.004-0.213-0.174-0.104-0.08c0.063,0.056,0.122,0.108,0.181,0.167c0.053,0.052,0.098,0.112,0.15,0.167 c0.073,0.077-0.168-0.234-0.07-0.087c0.021,0.032,0.042,0.06,0.063,0.091c0.083,0.129,0.157,0.269,0.22,0.412 c-0.035-0.083-0.07-0.167-0.104-0.251c0.083,0.206,0.143,0.418,0.178,0.638c-0.014-0.094-0.024-0.185-0.038-0.279 C609.156,411.535,609.166,411.653,609.166,411.772c0.004,0.548,0.479,1.071,1.047,1.046c0.562-0.024,1.05-0.46,1.047-1.046 c-0.011-0.984-0.419-1.992-1.162-2.647c-0.67-0.59-1.496-0.907-2.39-0.914c-0.255,0-0.509,0-0.768,0c-0.613,0-1.231,0-1.845,0 c-0.887,0-1.775,0-2.662,0c-1.078,0-2.155,0-3.237,0c-1.172,0-2.344,0-3.513,0c-1.182,0-2.361,0-3.544,0 c-1.105,0-2.208,0-3.314,0c-0.938,0-1.88,0-2.818,0c-0.687,0-1.378,0-2.065,0c-0.349,0-0.698,0-1.047,0 c-0.376,0-0.76,0.039-1.12,0.15c-1.004,0.314-1.8,1.05-2.208,2.013c-0.258,0.611-0.293,1.228-0.293,1.874 c0,0.617,0,1.231,0,1.849c0,0.952,0,1.908,0,2.86c0,1.137,0,2.274,0,3.415c0,1.182,0,2.366,0,3.551c0,1.085,0,2.17,0,3.258 c0,0.844,0,1.692,0,2.536c0,0.46,0,0.925,0,1.386c0,0.289,0.017,0.582,0.111,0.857c0.346,1.016,1.256,1.705,2.337,1.72 c0.23,0.003,0.457,0,0.687,0c0.569,0,1.137,0,1.703,0c0.833,0,1.667,0,2.501,0c1.029,0,2.062,0,3.091,0c1.144,0,2.288,0,3.432,0 c1.19,0,2.375,0,3.565,0c1.158,0,2.316,0,3.475,0c1.057,0,2.11,0,3.167,0c0.88,0,1.759,0,2.638,0c0.628,0,1.256,0,1.884,0 c0.304,0,0.606,0,0.914,0c1.374-0.003,2.487-1.095,2.494-2.474c0.003-0.369,0-0.736,0-1.105c0-0.781,0-1.559,0-2.341 c0-1.05,0-2.097,0-3.146c0-1.176,0-2.352,0-3.527c0-1.158,0-2.316,0-3.475c0-0.998,0-1.999,0-2.996c0-0.698,0-1.392,0-2.09 c0-0.251,0-0.502,0-0.753c0-0.547-0.481-1.071-1.047-1.046C609.645,410.75,609.166,411.186,609.166,411.772z"/></g></g><g><g><path d="M609.166,411.772c0,0.104-0.007,0.206-0.021,0.307c0.014-0.094,0.024-0.185,0.038-0.279 c-0.031,0.227-0.091,0.443-0.178,0.656c0.035-0.083,0.069-0.167,0.104-0.251c-0.066,0.15-0.149,0.29-0.24,0.429 c-0.042,0.063-0.115,0.111,0.063-0.077c-0.024,0.028-0.049,0.059-0.073,0.087c-0.066,0.073-0.136,0.143-0.209,0.209 c-0.021,0.021-0.046,0.038-0.066,0.059c-0.06,0.052-0.119,0.105-0.182,0.157c-0.279,0.241-0.562,0.485-0.841,0.726 c-1.008,0.869-2.013,1.737-3.021,2.609c-1.253,1.082-2.505,2.163-3.754,3.241c-1.074,0.928-2.146,1.853-3.22,2.781 c-0.471,0.408-0.938,0.816-1.412,1.221c-0.008,0.007-0.015,0.01-0.021,0.018c-0.077,0.066-0.149,0.063,0.066-0.049 c-0.028,0.014-0.06,0.041-0.084,0.059c-0.129,0.084-0.265,0.157-0.404,0.221c0.084-0.035,0.167-0.07,0.251-0.105 c-0.202,0.084-0.412,0.14-0.628,0.175c0.094-0.015,0.185-0.024,0.279-0.038c-0.234,0.031-0.464,0.031-0.694,0 c0.094,0.014,0.185,0.023,0.279,0.038c-0.216-0.032-0.426-0.091-0.628-0.175c0.083,0.035,0.167,0.07,0.251,0.105 c-0.14-0.063-0.275-0.133-0.405-0.221c-0.028-0.018-0.056-0.041-0.083-0.059c0.227,0.143,0.146,0.118,0.087,0.066 c-0.014-0.011-0.028-0.025-0.042-0.035c-0.011-0.011-0.024-0.021-0.035-0.031c-0.07-0.06-0.136-0.119-0.202-0.178 c-0.293-0.256-0.586-0.506-0.879-0.761c-1.022-0.883-2.044-1.765-3.066-2.648c-1.252-1.081-2.504-2.163-3.757-3.244 c-1.061-0.914-2.118-1.828-3.178-2.742c-0.457-0.394-0.924-0.781-1.371-1.186c-0.066-0.06-0.129-0.122-0.188-0.188 c-0.031-0.035-0.073-0.07-0.094-0.108c0.003,0.007,0.15,0.216,0.063,0.077c-0.091-0.14-0.171-0.276-0.241-0.429 c0.035,0.084,0.07,0.167,0.104,0.251c-0.087-0.212-0.146-0.429-0.178-0.656c0.014,0.094,0.024,0.185,0.038,0.279 c-0.024-0.223-0.024-0.443,0.007-0.663c-0.014,0.094-0.024,0.185-0.039,0.279c0.035-0.22,0.091-0.433,0.178-0.638 c-0.035,0.083-0.069,0.167-0.104,0.251c0.06-0.136,0.125-0.269,0.206-0.391c0.024-0.039,0.049-0.073,0.073-0.112 c0.077-0.119-0.077,0.108-0.084,0.105c-0.003,0,0.15-0.171,0.164-0.185c0.052-0.052,0.108-0.104,0.164-0.153 c0.063-0.056,0.171-0.098-0.087,0.066c0.031-0.021,0.063-0.045,0.094-0.066c0.133-0.091,0.275-0.164,0.426-0.227 c-0.084,0.035-0.167,0.07-0.251,0.105c0.195-0.077,0.398-0.133,0.607-0.161c-0.094,0.014-0.185,0.024-0.279,0.039 c0.314-0.039,0.642-0.024,0.959-0.024c0.596,0,1.193,0,1.789,0c0.896,0,1.793,0,2.693,0c1.095,0,2.194,0,3.289,0 c1.211,0,2.417,0,3.628,0c1.221,0,2.442,0,3.663,0c1.137,0,2.274,0,3.408,0c0.955,0,1.911,0,2.867,0c0.677,0,1.35,0,2.026,0 c0.304,0,0.61,0,0.914,0c0.129,0,0.255,0.007,0.384,0.024c-0.094-0.014-0.185-0.024-0.279-0.039 c0.21,0.031,0.412,0.083,0.607,0.161c-0.084-0.035-0.168-0.07-0.251-0.105c0.143,0.06,0.278,0.129,0.408,0.216 c0.007,0.003,0.111,0.073,0.111,0.077c0,0.004-0.213-0.174-0.104-0.08c0.063,0.056,0.122,0.108,0.181,0.167 c0.053,0.052,0.099,0.112,0.15,0.167c0.073,0.077-0.167-0.234-0.069-0.087c0.021,0.032,0.041,0.06,0.063,0.091 c0.084,0.129,0.157,0.269,0.22,0.412c-0.035-0.083-0.069-0.167-0.104-0.251c0.084,0.206,0.143,0.418,0.178,0.638 c-0.014-0.094-0.024-0.185-0.038-0.279C609.156,411.535,609.166,411.653,609.166,411.772c0.004,0.548,0.479,1.071,1.047,1.046 c0.562-0.024,1.05-0.46,1.047-1.046c-0.011-1.326-0.775-2.662-2.006-3.213c-0.538-0.241-1.089-0.345-1.675-0.345 c-0.607,0-1.218,0-1.824,0c-1.155,0-2.31,0-3.468,0c-1.479,0-2.961,0-4.44,0c-1.595,0-3.192,0-4.786,0c-1.503,0-3.003,0-4.507,0 c-1.186,0-2.369,0-3.555,0c-0.659,0-1.322,0-1.981,0c-0.349,0-0.694,0.021-1.036,0.094c-1.305,0.283-2.4,1.43-2.634,2.745 c-0.22,1.239,0.153,2.501,1.116,3.342c0.157,0.136,0.317,0.276,0.478,0.412c0.813,0.705,1.629,1.406,2.441,2.111 c1.162,1.001,2.323,2.006,3.485,3.007c1.144,0.987,2.288,1.978,3.436,2.964c0.75,0.649,1.5,1.295,2.25,1.943 c0.115,0.098,0.227,0.199,0.342,0.293c0.625,0.531,1.329,0.83,2.146,0.904c0.712,0.063,1.486-0.141,2.086-0.52 c0.275-0.176,0.52-0.395,0.768-0.607c0.282-0.244,0.568-0.492,0.852-0.736c0.966-0.834,1.932-1.671,2.901-2.504 c1.2-1.037,2.4-2.073,3.601-3.109c1.054-0.91,2.106-1.821,3.16-2.731c0.544-0.471,1.089-0.938,1.629-1.409 c0.768-0.666,1.211-1.629,1.222-2.644c0.007-0.548-0.485-1.071-1.047-1.046C609.641,410.75,609.173,411.186,609.166,411.772z"/></g></g></g><rect width="31.985" height="32" x="579.275" y="404.945" fill="none"/></g></svg>